<?xml version="1.0" encoding="utf-8"?>
<!-- Generator: Adobe Illustrator 23.0.2, SVG Export Plug-In . SVG Version: 6.00 Build 0)  -->
<svg version="1.1" id="Capa_1" xmlns="http://www.w3.org/2000/svg" xmlns:xlink="http://www.w3.org/1999/xlink" x="0px" y="0px"
	 viewBox="0 0 370 300" style="enable-background:new 0 0 370 300;" xml:space="preserve">
<style type="text/css">
	.st0{fill:#00555B;}
	.st1{fill:#F24500;}
</style>
<path class="st0" d="M262,0c-58.5,0-105.9,42.2-105.9,94.3c0,7.7,1.2,15.2,3.1,22.3l0.1,0.4c2.8,9.8,66.2,127.3,92,174.8
	c5.9,10.9,15.5,10.9,21.4,0C298,245,359.6,131,361.5,126.3l0.3-0.8c3.8-9.8,6-20.2,6-31.2C367.9,42.3,320.5,0,262,0z M263.2,152.9
	c-24.7,0-44.8-20.1-44.8-44.8c0-24.7,20.1-44.8,44.8-44.8S308,83.4,308,108.1C308,132.8,287.9,152.9,263.2,152.9z"/>
<path class="st1" d="M106,1C47.5,1,0.1,43.2,0.1,95.3c0,7.7,1.2,15.2,3.1,22.3l0.1,0.4c2.8,9.8,66.2,127.3,92,174.8
	c5.9,10.9,15.5,10.9,21.4,0C142,246,203.6,132,205.5,127.3l0.3-0.8c3.8-9.8,6-20.2,6-31.2C211.9,43.3,164.5,1,106,1z M107.2,153.9
	c-24.7,0-44.8-20.1-44.8-44.8c0-24.7,20.1-44.8,44.8-44.8S152,84.4,152,109.1C152,133.8,131.9,153.9,107.2,153.9z"/>
</svg>
