<?xml version="1.0" encoding="utf-8"?>
<!-- Generator: Adobe Illustrator 23.0.2, SVG Export Plug-In . SVG Version: 6.00 Build 0)  -->
<svg version="1.1" id="Capa_1" xmlns="http://www.w3.org/2000/svg" xmlns:xlink="http://www.w3.org/1999/xlink" x="0px" y="0px"
	 viewBox="0 0 370 300" style="enable-background:new 0 0 370 300;" xml:space="preserve">
<style type="text/css">
	.st0{fill:#00555B;}
	.st1{fill:#FFFFFF;}
	.st2{fill:#F24500;}
</style>
<path class="st0" d="M251.3,291.8c5.9,10.9,15.5,10.9,21.4,0c25.3-46.8,86.9-160.8,88.8-165.5l0.3-0.8c3.8-9.8,6-20.2,6-31.2
	C367.9,42.3,320.5,0,262,0c-58.5,0-105.9,42.2-105.9,94.3c0,7.7,1.2,15.2,3.1,22.3l0.1,0.4C162.1,126.8,225.5,244.3,251.3,291.8z"/>
<circle class="st1" cx="263.2" cy="108.1" r="44.8"/>
<path class="st2" d="M95.3,292.8c5.9,10.9,15.5,10.9,21.4,0c25.3-46.8,86.9-160.8,88.8-165.5l0.3-0.8c3.8-9.8,6-20.2,6-31.2
	C211.9,43.3,164.5,1,106,1C47.5,1,0.1,43.2,0.1,95.3c0,7.7,1.2,15.2,3.1,22.3l0.1,0.4C6.1,127.8,69.5,245.3,95.3,292.8z"/>
<circle class="st1" cx="107.2" cy="109.1" r="44.8"/>
</svg>
